<svg xmlns="http://www.w3.org/2000/svg" xmlns:xlink="http://www.w3.org/1999/xlink" width="156" height="44" viewBox="0 0 156 44">
  <defs>
    <path id="logo-a" d="M5.29283041,16.3155582 C6.09631296,16.8916885 6.61603801,17.8089572 6.61603801,18.8421053 C6.61603801,20.5861624 5.13498745,22 3.308019,22 C1.48105056,22 0,20.5861624 0,18.8421053 C0,17.8089572 0.519725048,16.8916885 1.3232076,16.3155582 L1.3232076,1.88601644 C1.3232076,0.844398324 2.1650625,0 3.21501126,0 L3.40102675,0 C4.44584106,0 5.29283041,0.838592649 5.29283041,1.88601644 L5.29283041,16.3155582 Z"/>
    <mask id="logo-b" width="6.616" height="22" x="0" y="0" fill="#fff">
      <use xlink:href="#logo-a"/>
    </mask>
  </defs>
  <g fill="none" fill-rule="evenodd">
    <path fill="#404040" d="M10.0418225,21.7253333 C12.9039205,21.7253333 15.3214208,20.6053333 16.7107888,19.2333333 L16.7107888,9.88133333 L9.40271322,9.88133333 L9.40271322,13.2693333 L13.0428573,13.2693333 L13.0428573,17.3573333 C12.4593228,17.8613333 11.4589778,18.1413333 10.4586329,18.1413333 C6.42946574,18.1413333 4.37320112,15.4253333 4.37320112,10.9173333 C4.37320112,6.46533333 6.76291405,3.77733333 10.1807593,3.77733333 C12.0425124,3.77733333 13.2095815,4.53333333 14.2099264,5.51333333 L16.4051278,2.88133333 C15.0713346,1.50933333 13.01507,0.221333333 10.0418225,0.221333333 C4.56771264,0.221333333 0.177309819,4.22533333 0.177309819,11.0573333 C0.177309819,17.9733333 4.42877584,21.7253333 10.0418225,21.7253333 Z M24.6301863,21.7253333 C26.4085773,21.7253333 27.9646695,20.8293333 29.3262501,19.6533333 L29.4096122,19.6533333 L29.7152731,21.3333333 L33.0497563,21.3333333 L33.0497563,12.1773333 C33.0497563,7.64133333 31.021279,5.26133333 27.0754739,5.26133333 C24.6301863,5.26133333 22.4071975,6.18533333 20.5732318,7.33333333 L22.0459618,10.0493333 C23.4909045,9.20933333 24.8802725,8.56533333 26.3252152,8.56533333 C28.242543,8.56533333 28.9094397,9.74133333 28.9650144,11.2813333 C22.7128585,11.9533333 20.0174846,13.7173333 20.0174846,17.0773333 C20.0174846,19.7373333 21.8514503,21.7253333 24.6301863,21.7253333 Z M25.9639796,18.5053333 C24.7691231,18.5053333 23.9077149,17.9733333 23.9077149,16.7413333 C23.9077149,15.3413333 25.1859335,14.3053333 28.9650144,13.8013333 L28.9650144,16.9653333 C27.9924568,17.9453333 27.1310487,18.5053333 25.9639796,18.5053333 Z M37.2178602,21.3333333 L41.2748147,21.3333333 L41.2748147,10.5533333 C42.3863091,9.37733333 43.386654,8.78933333 44.2758496,8.78933333 C45.7485796,8.78933333 46.4432636,9.65733333 46.4432636,12.0653333 L46.4432636,21.3333333 L50.5280055,21.3333333 L50.5280055,10.5533333 C51.6394999,9.37733333 52.6398448,8.78933333 53.5290403,8.78933333 C55.0017704,8.78933333 55.6964544,9.65733333 55.6964544,12.0653333 L55.6964544,21.3333333 L59.7811962,21.3333333 L59.7811962,11.5613333 C59.7811962,7.61333333 58.2528914,5.26133333 54.9461957,5.26133333 C52.9177184,5.26133333 51.417201,6.49333333 50.0000456,8.00533333 C49.2497869,6.26933333 47.943781,5.26133333 45.7207923,5.26133333 C43.692315,5.26133333 42.2473723,6.38133333 40.9413664,7.75333333 L40.830217,7.75333333 L40.5523434,5.65333333 L37.2178602,5.65333333 L37.2178602,21.3333333 Z M63.1712541,14.7813333 L70.7572033,14.7813333 L70.7572033,11.8413333 L63.1712541,11.8413333 L63.1712541,14.7813333 Z M83.4560266,21.7253333 C86.3181247,21.7253333 88.735625,20.6053333 90.1249929,19.2333333 L90.1249929,9.88133333 L82.8169174,9.88133333 L82.8169174,13.2693333 L86.4570615,13.2693333 L86.4570615,17.3573333 C85.8735269,17.8613333 84.873182,18.1413333 83.872837,18.1413333 C79.8436699,18.1413333 77.7874053,15.4253333 77.7874053,10.9173333 C77.7874053,6.46533333 80.1771182,3.77733333 83.5949634,3.77733333 C85.4567165,3.77733333 86.6237856,4.53333333 87.6241306,5.51333333 L89.819332,2.88133333 C88.4855387,1.50933333 86.4292741,0.221333333 83.4560266,0.221333333 C77.9819168,0.221333333 73.591514,4.22533333 73.591514,11.0573333 C73.591514,17.9733333 77.84298,21.7253333 83.4560266,21.7253333 Z"/>
    <g transform="translate(93.286)">
      <use stroke="#E75252" stroke-width="1.684" mask="url(#logo-b)" xlink:href="#logo-a"/>
      <path fill="#E75252" d="M4.0798901 17.0959809C4.79264507 17.3834574 5.29283041 18.0570199 5.29283041 18.8421053 5.29283041 19.8885395 4.40420007 20.7368421 3.308019 20.7368421 2.21183794 20.7368421 1.3232076 19.8885395 1.3232076 18.8421053 1.3232076 18.0570199 1.82339294 17.3834574 2.5361479 17.0959809L2.5361479 9.47368421 4.0798901 9.47368421 4.0798901 17.0959809zM5.29283041 7.15789474L3.41889501 7.15789474C3.17427417 7.15789474 2.9772171 7.34640642 2.9772171 7.57894737 2.9772171 7.81101514 3.17496304 8 3.41889501 8L5.29283041 8 5.29283041 7.15789474zM5.29283041 5.05263158L3.41889501 5.05263158C3.17427417 5.05263158 2.9772171 5.24114326 2.9772171 5.47368421 2.9772171 5.70575198 3.17496304 5.89473684 3.41889501 5.89473684L5.29283041 5.89473684 5.29283041 5.05263158zM5.29283041 2.94736842L3.41889501 2.94736842C3.17427417 2.94736842 2.9772171 3.13588011 2.9772171 3.36842105 2.9772171 3.60048883 3.17496304 3.78947368 3.41889501 3.78947368L5.29283041 3.78947368 5.29283041 2.94736842z"/>
    </g>
    <path fill="#404040" d="M0.572,41 L6.747,41 L6.747,39.726 L4.355,39.726 C3.887,39.726 3.289,39.765 2.795,39.817 C4.823,37.88 6.292,35.969 6.292,34.123 C6.292,32.394 5.161,31.25 3.406,31.25 C2.158,31.25 1.313,31.796 0.494,32.68 L1.339,33.512 C1.846,32.927 2.47,32.446 3.224,32.446 C4.29,32.446 4.849,33.161 4.849,34.201 C4.849,35.774 3.393,37.633 0.572,40.129 L0.572,41 Z M11.115,41.169 C12.987,41.169 14.209,39.505 14.209,36.177 C14.209,32.875 12.987,31.25 11.115,31.25 C9.23,31.25 8.021,32.862 8.021,36.177 C8.021,39.505 9.23,41.169 11.115,41.169 Z M11.115,39.986 C10.14,39.986 9.451,38.946 9.451,36.177 C9.451,33.434 10.14,32.433 11.115,32.433 C12.09,32.433 12.779,33.434 12.779,36.177 C12.779,38.946 12.09,39.986 11.115,39.986 Z M15.938,41 L21.398,41 L21.398,39.765 L19.526,39.765 L19.526,31.432 L18.395,31.432 C17.849,31.77 17.212,31.991 16.315,32.16 L16.315,33.109 L18.031,33.109 L18.031,39.765 L15.938,39.765 L15.938,41 Z M24.739,41 L26.273,41 C26.429,37.256 26.78,35.15 29.029,32.342 L29.029,31.432 L22.867,31.432 L22.867,32.693 L27.365,32.693 C25.519,35.267 24.908,37.503 24.739,41 Z M38.688,38.933 L40.027,38.933 L40.027,30.262 L38.688,30.262 L38.688,31.692 L35.568,31.692 L35.568,32.758 L38.688,32.758 L38.688,33.915 L35.568,33.915 L35.568,34.981 L38.688,34.981 L38.688,38.933 Z M36.868,35.787 C35.243,36.073 33.826,36.164 32.305,36.177 L32.305,31.068 L30.966,31.068 L30.966,37.282 L31.876,37.282 C33.618,37.282 35.178,37.204 36.998,36.879 L36.868,35.787 Z M33.748,40.688 L33.748,38.166 L32.409,38.166 L32.409,41.78 L40.326,41.78 L40.326,40.688 L33.748,40.688 Z M52.338,35.241 C50.778,35.501 49.439,35.553 47.177,35.553 L47.177,34.279 L51.129,34.279 L51.129,33.226 L47.177,33.226 L47.177,32.017 L51.467,32.017 L51.467,30.938 L45.851,30.938 L45.851,36.619 L46.826,36.619 C49.348,36.619 50.791,36.58 52.468,36.307 L52.338,35.241 Z M48.49,38.868 L53.547,38.868 L53.547,40.792 L48.49,40.792 L48.49,38.868 Z M47.177,41.858 L54.86,41.858 L54.86,37.802 L47.177,37.802 L47.177,41.858 Z M53.521,30.262 L53.521,37.256 L54.86,37.256 L54.86,30.262 L53.521,30.262 Z M62.712,38.244 C61.906,38.244 61.412,37.191 61.412,35.332 C61.412,33.473 61.906,32.433 62.712,32.433 C63.518,32.433 64.012,33.473 64.012,35.332 C64.012,37.191 63.518,38.244 62.712,38.244 Z M66.469,34.708 L65.208,34.708 C65.065,32.511 64.116,31.172 62.712,31.172 C61.191,31.172 60.19,32.758 60.19,35.332 C60.19,37.906 61.191,39.505 62.712,39.505 C64.142,39.505 65.104,38.101 65.221,35.813 L66.469,35.813 L66.469,41.442 L67.717,41.442 L67.717,30.483 L66.469,30.483 L66.469,34.708 Z M68.822,30.262 L68.822,41.988 L70.096,41.988 L70.096,30.262 L68.822,30.262 Z M73.06,36.125 C74.451,35.813 75.426,35.111 75.933,34.175 C76.453,35.02 77.402,35.67 78.741,35.956 L79.274,34.916 C77.584,34.565 76.596,33.642 76.583,32.576 L79.04,32.576 L79.04,31.523 L76.583,31.523 L76.583,30.288 L75.231,30.288 L75.231,31.523 L72.787,31.523 L72.787,32.576 L75.244,32.576 C75.231,33.707 74.23,34.721 72.514,35.098 L73.06,36.125 Z M79.651,36.437 C77.129,36.788 74.217,36.814 72.033,36.814 L72.202,37.919 C73.125,37.919 74.152,37.906 75.244,37.867 L75.244,41.663 L76.583,41.663 L76.583,37.789 C77.623,37.737 78.702,37.607 79.729,37.425 L79.651,36.437 Z M80.405,30.262 L80.405,42.014 L81.744,42.014 L81.744,30.262 L80.405,30.262 Z M84.565,31.497 L84.565,32.589 L88.673,32.589 C88.4,35.293 86.853,37.36 83.98,38.829 L84.721,39.856 C88.556,37.919 90.012,34.903 90.012,31.497 L84.565,31.497 Z M94.861,34.89 L93.08,34.89 L93.08,30.249 L91.741,30.249 L91.741,41.988 L93.08,41.988 L93.08,36.008 L94.861,36.008 L94.861,34.89 Z M103.467,35.735 L100.607,35.735 L100.607,32.342 L103.467,32.342 L103.467,35.735 Z M104.78,31.263 L99.281,31.263 L99.281,36.814 L104.78,36.814 L104.78,31.263 Z M101.959,38.023 L100.607,38.023 L100.607,41.78 L108.511,41.78 L108.511,40.688 L101.959,40.688 L101.959,38.023 Z M108.043,33.746 L108.043,30.249 L106.704,30.249 L106.704,38.855 L108.043,38.855 L108.043,34.851 L109.707,34.851 L109.707,33.746 L108.043,33.746 Z M120.224,33.226 L113.529,33.226 L113.529,31.614 L120.133,31.614 L120.133,30.535 L112.177,30.535 L112.177,34.292 L120.224,34.292 L120.224,33.226 Z M113.204,39.882 L115.726,39.882 L115.726,37.087 L111.93,37.087 L111.93,38.075 L114.478,38.075 L114.478,38.972 L111.956,38.972 L111.956,41.897 L112.619,41.897 C114.322,41.897 115.102,41.897 116.09,41.715 L115.986,40.714 C115.167,40.87 114.478,40.909 113.204,40.909 L113.204,39.882 Z M117.546,38.049 L119.119,38.049 L119.119,40.935 L117.546,40.935 L117.546,38.049 Z M116.415,41.897 L120.25,41.897 L120.25,37.087 L116.415,37.087 L116.415,41.897 Z M110.838,35.15 L110.838,36.216 L121.446,36.216 L121.446,35.15 L110.838,35.15 Z M124.072,41.169 C124.631,41.169 125.073,40.74 125.073,40.129 C125.073,39.518 124.631,39.063 124.072,39.063 C123.513,39.063 123.071,39.518 123.071,40.129 C123.071,40.74 123.513,41.169 124.072,41.169 Z"/>
    <rect width="1" height="44" x="155" fill="#D9D9D9"/>
  </g>
</svg>
