<svg xmlns="http://www.w3.org/2000/svg" xmlns:xlink="http://www.w3.org/1999/xlink" width="562" height="33" viewBox="0 0 562 33">
  <defs>
    <path id="logo1-a" d="M8,24.4733373 C9.2144467,25.3375328 10,26.7134357 10,28.2631579 C10,30.8792436 7.76142375,33 5,33 C2.23857625,33 0,30.8792436 0,28.2631579 C0,26.7134357 0.785553298,25.3375328 2,24.4733373 L2,2.8421234 C2,1.27246199 3.27244568,0 4.84186205,0 L5.15813795,0 C6.72765502,0 8,1.27640707 8,2.8421234 L8,24.4733373 Z"/>
    <mask id="logo1-b" width="10" height="33" x="0" y="0" fill="#fff">
      <use xlink:href="#logo1-a"/>
    </mask>
  </defs>
  <g fill="none" fill-rule="evenodd">
    <path fill="#404040" d="M15.178,32.588 C19.504,32.588 23.158,30.908 25.258,28.85 L25.258,14.822 L14.212,14.822 L14.212,19.904 L19.714,19.904 L19.714,26.036 C18.832,26.792 17.32,27.212 15.808,27.212 C9.718,27.212 6.61,23.138 6.61,16.376 C6.61,9.698 10.222,5.666 15.388,5.666 C18.202,5.666 19.966,6.8 21.478,8.27 L24.796,4.322 C22.78,2.264 19.672,0.332 15.178,0.332 C6.904,0.332 0.268,6.338 0.268,16.586 C0.268,26.96 6.694,32.588 15.178,32.588 Z M37.228,32.588 C39.916,32.588 42.268,31.244 44.326,29.48 L44.452,29.48 L44.914,32 L49.954,32 L49.954,18.266 C49.954,11.462 46.888,7.892 40.924,7.892 C37.228,7.892 33.868,9.278 31.096,11 L33.322,15.074 C35.506,13.814 37.606,12.848 39.79,12.848 C42.688,12.848 43.696,14.612 43.78,16.922 C34.33,17.93 30.256,20.576 30.256,25.616 C30.256,29.606 33.028,32.588 37.228,32.588 Z M39.244,27.758 C37.438,27.758 36.136,26.96 36.136,25.112 C36.136,23.012 38.068,21.458 43.78,20.702 L43.78,25.448 C42.31,26.918 41.008,27.758 39.244,27.758 Z M56.254,32 L62.386,32 L62.386,15.83 C64.066,14.066 65.578,13.184 66.922,13.184 C69.148,13.184 70.198,14.486 70.198,18.098 L70.198,32 L76.372,32 L76.372,15.83 C78.052,14.066 79.564,13.184 80.908,13.184 C83.134,13.184 84.184,14.486 84.184,18.098 L84.184,32 L90.358,32 L90.358,17.342 C90.358,11.42 88.048,7.892 83.05,7.892 C79.984,7.892 77.716,9.74 75.574,12.008 C74.44,9.404 72.466,7.892 69.106,7.892 C66.04,7.892 63.856,9.572 61.882,11.63 L61.714,11.63 L61.294,8.48 L56.254,8.48 L56.254,32 Z M95.482,22.172 L106.948,22.172 L106.948,17.762 L95.482,17.762 L95.482,22.172 Z M126.142,32.588 C130.468,32.588 134.122,30.908 136.222,28.85 L136.222,14.822 L125.176,14.822 L125.176,19.904 L130.678,19.904 L130.678,26.036 C129.796,26.792 128.284,27.212 126.772,27.212 C120.682,27.212 117.574,23.138 117.574,16.376 C117.574,9.698 121.186,5.666 126.352,5.666 C129.166,5.666 130.93,6.8 132.442,8.27 L135.76,4.322 C133.744,2.264 130.636,0.332 126.142,0.332 C117.868,0.332 111.232,6.338 111.232,16.586 C111.232,26.96 117.658,32.588 126.142,32.588 Z"/>
    <g transform="translate(141)">
      <use stroke="#E75252" stroke-width="2.526" mask="url(#logo1-b)" xlink:href="#logo1-a"/>
      <path fill="#E75252" d="M6.16666667 25.6439713C7.24398056 26.0751861 8 27.0855299 8 28.2631579 8 29.8328093 6.65685425 31.1052632 5 31.1052632 3.34314575 31.1052632 2 29.8328093 2 28.2631579 2 27.0855299 2.75601944 26.0751861 3.83333333 25.6439713L3.83333333 14.2105263 6.16666667 14.2105263 6.16666667 25.6439713zM8 10.7368421L5.16758671 10.7368421C4.79784755 10.7368421 4.5 11.0196096 4.5 11.3684211 4.5 11.7165227 4.79888875 12 5.16758671 12L8 12 8 10.7368421zM8 7.57894737L5.16758671 7.57894737C4.79784755 7.57894737 4.5 7.86171489 4.5 8.21052632 4.5 8.55862798 4.79888875 8.84210526 5.16758671 8.84210526L8 8.84210526 8 7.57894737zM8 4.42105263L5.16758671 4.42105263C4.79784755 4.42105263 4.5 4.70382016 4.5 5.05263158 4.5 5.40073324 4.79888875 5.68421053 5.16758671 5.68421053L8 5.68421053 8 4.42105263z"/>
    </g>
    <path fill="#838383" d="M169.01 31.73L171.3 31.73 171.3 30.93 170.11 30.93 170.11 22.75 171.3 22.75 171.3 21.97 169.01 21.97 169.01 31.73zM173.83 30L175.53 30 177.4 24.4 175.99 24.4 175.17 27.19C175.02 27.74 174.86 28.32 174.72 28.89L174.67 28.89C174.52 28.32 174.36 27.74 174.22 27.19L173.4 24.4 171.92 24.4 173.83 30zM180.76 30.14C181.46 30.14 182.17 29.9 182.72 29.52L182.22 28.62C181.82 28.87 181.42 29.01 180.96 29.01 180.13 29.01 179.53 28.53 179.41 27.61L182.86 27.61C182.9 27.48 182.93 27.21 182.93 26.94 182.93 25.39 182.13 24.26 180.59 24.26 179.25 24.26 177.98 25.39 177.98 27.21 177.98 29.05 179.2 30.14 180.76 30.14zM179.39 26.64C179.5 25.82 180.02 25.4 180.61 25.4 181.33 25.4 181.67 25.88 181.67 26.64L179.39 26.64zM184.14 30L185.6 30 185.6 26.66C185.92 25.85 186.45 25.56 186.89 25.56 187.12 25.56 187.28 25.59 187.47 25.65L187.73 24.38C187.56 24.31 187.38 24.26 187.07 24.26 186.49 24.26 185.89 24.66 185.48 25.39L185.44 25.39 185.34 24.4 184.14 24.4 184.14 30zM191.31 30.14C192.54 30.14 193.69 29.03 193.69 27.1 193.69 25.39 192.86 24.26 191.48 24.26 190.93 24.26 190.37 24.53 189.93 24.93L189.96 24.03 189.96 22.02 188.5 22.02 188.5 30 189.65 30 189.78 29.41 189.81 29.41C190.27 29.88 190.81 30.14 191.31 30.14zM190.98 28.93C190.68 28.93 190.31 28.82 189.96 28.51L189.96 26.05C190.35 25.66 190.69 25.47 191.07 25.47 191.84 25.47 192.18 26.06 192.18 27.13 192.18 28.35 191.66 28.93 190.98 28.93zM194.63 31.73L196.92 31.73 196.92 21.97 194.63 21.97 194.63 22.75 195.82 22.75 195.82 30.93 194.63 30.93 194.63 31.73zM203.04 30.14C203.53 30.14 203.92 30.03 204.22 29.93L203.98 28.86C203.83 28.92 203.61 28.98 203.43 28.98 202.93 28.98 202.67 28.68 202.67 28.04L202.67 25.56 204.05 25.56 204.05 24.4 202.67 24.4 202.67 22.9 201.44 22.9 201.27 24.4 200.41 24.47 200.41 25.56 201.2 25.56 201.2 28.04C201.2 29.3 201.71 30.14 203.04 30.14zM207.53 30.14C208.93 30.14 210.22 29.06 210.22 27.21 210.22 25.34 208.93 24.26 207.53 24.26 206.13 24.26 204.84 25.34 204.84 27.21 204.84 29.06 206.13 30.14 207.53 30.14zM207.53 28.94C206.77 28.94 206.34 28.26 206.34 27.21 206.34 26.15 206.77 25.46 207.53 25.46 208.29 25.46 208.72 26.15 208.72 27.21 208.72 28.26 208.29 28.94 207.53 28.94zM216.98 22.08C216.73 21.98 216.35 21.88 215.92 21.88 214.51 21.88 213.97 22.78 213.97 23.95L213.97 24.41 213.22 24.47 213.22 25.56 213.97 25.56 213.97 30 215.44 30 215.44 25.56 216.49 25.56 216.49 24.4 215.44 24.4 215.44 23.92C215.44 23.3 215.68 23.04 216.12 23.04 216.3 23.04 216.52 23.09 216.71 23.16L216.98 22.08zM219.78 30.14C221.18 30.14 222.47 29.06 222.47 27.21 222.47 25.34 221.18 24.26 219.78 24.26 218.38 24.26 217.09 25.34 217.09 27.21 217.09 29.06 218.38 30.14 219.78 30.14zM219.78 28.94C219.02 28.94 218.59 28.26 218.59 27.21 218.59 26.15 219.02 25.46 219.78 25.46 220.54 25.46 220.97 26.15 220.97 27.21 220.97 28.26 220.54 28.94 219.78 28.94zM223.7 30L225.16 30 225.16 26.66C225.48 25.85 226.01 25.56 226.45 25.56 226.68 25.56 226.84 25.59 227.03 25.65L227.29 24.38C227.12 24.31 226.94 24.26 226.63 24.26 226.05 24.26 225.45 24.66 225.04 25.39L225 25.39 224.9 24.4 223.7 24.4 223.7 30zM230.44 30.14C231.06 30.14 231.74 29.93 232.27 29.46L231.69 28.49C231.38 28.75 231 28.94 230.6 28.94 229.79 28.94 229.21 28.26 229.21 27.21 229.21 26.15 229.79 25.46 230.64 25.46 230.96 25.46 231.22 25.59 231.5 25.83L232.2 24.88C231.79 24.53 231.26 24.26 230.57 24.26 229.05 24.26 227.71 25.34 227.71 27.21 227.71 29.06 228.89 30.14 230.44 30.14zM235.76 30.14C236.46 30.14 237.17 29.9 237.72 29.52L237.22 28.62C236.82 28.87 236.42 29.01 235.96 29.01 235.13 29.01 234.53 28.53 234.41 27.61L237.86 27.61C237.9 27.48 237.93 27.21 237.93 26.94 237.93 25.39 237.13 24.26 235.59 24.26 234.25 24.26 232.98 25.39 232.98 27.21 232.98 29.05 234.2 30.14 235.76 30.14zM234.39 26.64C234.5 25.82 235.02 25.4 235.61 25.4 236.33 25.4 236.67 25.88 236.67 26.64L234.39 26.64zM242.79 30.14C243.43 30.14 243.99 29.82 244.48 29.4L244.51 29.4 244.62 30 245.82 30 245.82 26.73C245.82 25.11 245.09 24.26 243.67 24.26 242.79 24.26 241.99 24.59 241.33 25L241.86 25.97C242.38 25.67 242.88 25.44 243.4 25.44 244.09 25.44 244.33 25.86 244.35 26.41 242.1 26.65 241.13 27.28 241.13 28.48 241.13 29.43 241.79 30.14 242.79 30.14zM243.27 28.99C242.84 28.99 242.53 28.8 242.53 28.36 242.53 27.86 242.99 27.49 244.35 27.31L244.35 28.44C244 28.79 243.69 28.99 243.27 28.99zM247.32 30L248.78 30 248.78 24.4 247.32 24.4 247.32 30zM248.06 23.5C248.56 23.5 248.93 23.16 248.93 22.7 248.93 22.22 248.56 21.9 248.06 21.9 247.55 21.9 247.18 22.22 247.18 22.7 247.18 23.16 247.55 23.5 248.06 23.5zM250.36 30L251.82 30 251.82 26.66C252.14 25.85 252.67 25.56 253.11 25.56 253.34 25.56 253.5 25.59 253.69 25.65L253.95 24.38C253.78 24.31 253.6 24.26 253.29 24.26 252.71 24.26 252.11 24.66 251.7 25.39L251.66 25.39 251.56 24.4 250.36 24.4 250.36 30zM259.33 30.14C260.73 30.14 262.02 29.06 262.02 27.21 262.02 25.34 260.73 24.26 259.33 24.26 257.93 24.26 256.64 25.34 256.64 27.21 256.64 29.06 257.93 30.14 259.33 30.14zM259.33 28.94C258.57 28.94 258.14 28.26 258.14 27.21 258.14 26.15 258.57 25.46 259.33 25.46 260.09 25.46 260.52 26.15 260.52 27.21 260.52 28.26 260.09 28.94 259.33 28.94zM264.91 30.14C265.68 30.14 266.22 29.77 266.7 29.2L266.74 29.2 266.85 30 268.05 30 268.05 24.4 266.58 24.4 266.58 28.18C266.2 28.68 265.9 28.88 265.44 28.88 264.9 28.88 264.66 28.58 264.66 27.71L264.66 24.4 263.19 24.4 263.19 27.9C263.19 29.3 263.71 30.14 264.91 30.14zM271.67 30.14C272.16 30.14 272.55 30.03 272.85 29.93L272.61 28.86C272.46 28.92 272.24 28.98 272.06 28.98 271.56 28.98 271.3 28.68 271.3 28.04L271.3 25.56 272.68 25.56 272.68 24.4 271.3 24.4 271.3 22.9 270.07 22.9 269.9 24.4 269.04 24.47 269.04 25.56 269.83 25.56 269.83 28.04C269.83 29.3 270.34 30.14 271.67 30.14zM278.43 30.14C279.83 30.14 281.12 29.06 281.12 27.21 281.12 25.34 279.83 24.26 278.43 24.26 277.03 24.26 275.74 25.34 275.74 27.21 275.74 29.06 277.03 30.14 278.43 30.14zM278.43 28.94C277.67 28.94 277.24 28.26 277.24 27.21 277.24 26.15 277.67 25.46 278.43 25.46 279.19 25.46 279.62 26.15 279.62 27.21 279.62 28.26 279.19 28.94 278.43 28.94zM285.61 22.08C285.36 21.98 284.98 21.88 284.55 21.88 283.14 21.88 282.6 22.78 282.6 23.95L282.6 24.41 281.85 24.47 281.85 25.56 282.6 25.56 282.6 30 284.07 30 284.07 25.56 285.12 25.56 285.12 24.4 284.07 24.4 284.07 23.92C284.07 23.3 284.31 23.04 284.75 23.04 284.93 23.04 285.15 23.09 285.34 23.16L285.61 22.08zM288.83 32.25C290.08 32.25 290.68 31.49 291.17 30.17L293.16 24.4 291.75 24.4 290.98 27C290.85 27.52 290.71 28.06 290.58 28.58L290.53 28.58C290.37 28.04 290.23 27.5 290.06 27L289.17 24.4 287.69 24.4 289.87 29.9 289.77 30.23C289.61 30.72 289.29 31.08 288.72 31.08 288.59 31.08 288.43 31.04 288.33 31.01L288.06 32.14C288.28 32.21 288.5 32.25 288.83 32.25zM296.42 30.14C297.82 30.14 299.11 29.06 299.11 27.21 299.11 25.34 297.82 24.26 296.42 24.26 295.02 24.26 293.73 25.34 293.73 27.21 293.73 29.06 295.02 30.14 296.42 30.14zM296.42 28.94C295.66 28.94 295.23 28.26 295.23 27.21 295.23 26.15 295.66 25.46 296.42 25.46 297.18 25.46 297.61 26.15 297.61 27.21 297.61 28.26 297.18 28.94 296.42 28.94zM302 30.14C302.77 30.14 303.31 29.77 303.79 29.2L303.83 29.2 303.94 30 305.14 30 305.14 24.4 303.67 24.4 303.67 28.18C303.29 28.68 302.99 28.88 302.53 28.88 301.99 28.88 301.75 28.58 301.75 27.71L301.75 24.4 300.28 24.4 300.28 27.9C300.28 29.3 300.8 30.14 302 30.14zM306.71 30L308.17 30 308.17 26.66C308.49 25.85 309.02 25.56 309.46 25.56 309.69 25.56 309.85 25.59 310.04 25.65L310.3 24.38C310.13 24.31 309.95 24.26 309.64 24.26 309.06 24.26 308.46 24.66 308.05 25.39L308.01 25.39 307.91 24.4 306.71 24.4 306.71 30zM314.72 30.14C315.06 30.14 315.31 30.08 315.48 30.01L315.3 28.92C315.2 28.94 315.16 28.94 315.1 28.94 314.96 28.94 314.8 28.83 314.8 28.5L314.8 22.02 313.34 22.02 313.34 28.43C313.34 29.47 313.7 30.14 314.72 30.14zM318.15 30.14C318.92 30.14 319.46 29.77 319.94 29.2L319.98 29.2 320.09 30 321.29 30 321.29 24.4 319.82 24.4 319.82 28.18C319.44 28.68 319.14 28.88 318.68 28.88 318.14 28.88 317.9 28.58 317.9 27.71L317.9 24.4 316.43 24.4 316.43 27.9C316.43 29.3 316.95 30.14 318.15 30.14zM322.86 30L324.32 30 324.32 26.15C324.74 25.74 325.03 25.52 325.49 25.52 326.04 25.52 326.28 25.83 326.28 26.69L326.28 30 327.75 30 327.75 26.51C327.75 25.1 327.23 24.26 326.02 24.26 325.26 24.26 324.69 24.66 324.2 25.14L324.16 25.14 324.06 24.4 322.86 24.4 322.86 30zM331.24 32.43C333.11 32.43 334.28 31.57 334.28 30.44 334.28 29.46 333.55 29.04 332.2 29.04L331.25 29.04C330.59 29.04 330.37 28.88 330.37 28.58 330.37 28.36 330.45 28.23 330.61 28.1 330.85 28.18 331.11 28.23 331.33 28.23 332.53 28.23 333.49 27.59 333.49 26.33 333.49 25.98 333.38 25.67 333.23 25.48L334.19 25.48 334.19 24.4 332.17 24.4C331.94 24.32 331.64 24.26 331.33 24.26 330.14 24.26 329.07 24.97 329.07 26.29 329.07 26.94 329.43 27.47 329.81 27.75L329.81 27.79C329.48 28.03 329.19 28.42 329.19 28.84 329.19 29.3 329.41 29.59 329.7 29.78L329.7 29.83C329.19 30.12 328.9 30.52 328.9 30.99 328.9 31.98 329.92 32.43 331.24 32.43zM331.33 27.32C330.84 27.32 330.45 26.95 330.45 26.29 330.45 25.63 330.83 25.26 331.33 25.26 331.83 25.26 332.2 25.63 332.2 26.29 332.2 26.95 331.82 27.32 331.33 27.32zM331.46 31.5C330.64 31.5 330.12 31.23 330.12 30.76 330.12 30.53 330.24 30.31 330.49 30.11 330.69 30.16 330.93 30.19 331.27 30.19L331.95 30.19C332.55 30.19 332.88 30.29 332.88 30.69 332.88 31.13 332.3 31.5 331.46 31.5zM336.84 30.14C338.3 30.14 339.07 29.35 339.07 28.37 339.07 27.33 338.25 26.96 337.51 26.68 336.92 26.46 336.37 26.31 336.37 25.9 336.37 25.58 336.61 25.36 337.11 25.36 337.53 25.36 337.92 25.56 338.32 25.84L338.98 24.95C338.51 24.6 337.89 24.26 337.07 24.26 335.81 24.26 334.99 24.97 334.99 25.98 334.99 26.91 335.81 27.34 336.52 27.61 337.11 27.84 337.69 28.03 337.69 28.45 337.69 28.8 337.44 29.04 336.88 29.04 336.36 29.04 335.88 28.82 335.38 28.43L334.71 29.35C335.26 29.81 336.09 30.14 336.84 30.14zM344.51 30.14C345 30.14 345.39 30.03 345.69 29.93L345.45 28.86C345.3 28.92 345.08 28.98 344.9 28.98 344.4 28.98 344.14 28.68 344.14 28.04L344.14 25.56 345.52 25.56 345.52 24.4 344.14 24.4 344.14 22.9 342.91 22.9 342.74 24.4 341.88 24.47 341.88 25.56 342.67 25.56 342.67 28.04C342.67 29.3 343.18 30.14 344.51 30.14zM346.66 30L348.12 30 348.12 26.15C348.54 25.74 348.83 25.52 349.29 25.52 349.84 25.52 350.08 25.83 350.08 26.69L350.08 30 351.55 30 351.55 26.51C351.55 25.1 351.03 24.26 349.82 24.26 349.06 24.26 348.51 24.66 348.06 25.08L348.12 24.03 348.12 22.02 346.66 22.02 346.66 30zM353.06 30L354.52 30 354.52 26.66C354.84 25.85 355.37 25.56 355.81 25.56 356.04 25.56 356.2 25.59 356.39 25.65L356.65 24.38C356.48 24.31 356.3 24.26 355.99 24.26 355.41 24.26 354.81 24.66 354.4 25.39L354.36 25.39 354.26 24.4 353.06 24.4 353.06 30zM359.76 30.14C361.16 30.14 362.45 29.06 362.45 27.21 362.45 25.34 361.16 24.26 359.76 24.26 358.36 24.26 357.07 25.34 357.07 27.21 357.07 29.06 358.36 30.14 359.76 30.14zM359.76 28.94C359 28.94 358.57 28.26 358.57 27.21 358.57 26.15 359 25.46 359.76 25.46 360.52 25.46 360.95 26.15 360.95 27.21 360.95 28.26 360.52 28.94 359.76 28.94zM365.34 30.14C366.11 30.14 366.65 29.77 367.13 29.2L367.17 29.2 367.28 30 368.48 30 368.48 24.4 367.01 24.4 367.01 28.18C366.63 28.68 366.33 28.88 365.87 28.88 365.33 28.88 365.09 28.58 365.09 27.71L365.09 24.4 363.62 24.4 363.62 27.9C363.62 29.3 364.14 30.14 365.34 30.14zM372.02 32.43C373.89 32.43 375.06 31.57 375.06 30.44 375.06 29.46 374.33 29.04 372.98 29.04L372.03 29.04C371.37 29.04 371.15 28.88 371.15 28.58 371.15 28.36 371.23 28.23 371.39 28.1 371.63 28.18 371.89 28.23 372.11 28.23 373.31 28.23 374.27 27.59 374.27 26.33 374.27 25.98 374.16 25.67 374.01 25.48L374.97 25.48 374.97 24.4 372.95 24.4C372.72 24.32 372.42 24.26 372.11 24.26 370.92 24.26 369.85 24.97 369.85 26.29 369.85 26.94 370.21 27.47 370.59 27.75L370.59 27.79C370.26 28.03 369.97 28.42 369.97 28.84 369.97 29.3 370.19 29.59 370.48 29.78L370.48 29.83C369.97 30.12 369.68 30.52 369.68 30.99 369.68 31.98 370.7 32.43 372.02 32.43zM372.11 27.32C371.62 27.32 371.23 26.95 371.23 26.29 371.23 25.63 371.61 25.26 372.11 25.26 372.61 25.26 372.98 25.63 372.98 26.29 372.98 26.95 372.6 27.32 372.11 27.32zM372.24 31.5C371.42 31.5 370.9 31.23 370.9 30.76 370.9 30.53 371.02 30.31 371.27 30.11 371.47 30.16 371.71 30.19 372.05 30.19L372.73 30.19C373.33 30.19 373.66 30.29 373.66 30.69 373.66 31.13 373.08 31.5 372.24 31.5zM376.02 30L377.48 30 377.48 26.15C377.9 25.74 378.19 25.52 378.65 25.52 379.2 25.52 379.44 25.83 379.44 26.69L379.44 30 380.91 30 380.91 26.51C380.91 25.1 380.39 24.26 379.18 24.26 378.42 24.26 377.87 24.66 377.42 25.08L377.48 24.03 377.48 22.02 376.02 22.02 376.02 30zM385.18 32.25C386.43 32.25 387.03 31.49 387.52 30.17L389.51 24.4 388.1 24.4 387.33 27C387.2 27.52 387.06 28.06 386.93 28.58L386.88 28.58C386.72 28.04 386.58 27.5 386.41 27L385.52 24.4 384.04 24.4 386.22 29.9 386.12 30.23C385.96 30.72 385.64 31.08 385.07 31.08 384.94 31.08 384.78 31.04 384.68 31.01L384.41 32.14C384.63 32.21 384.85 32.25 385.18 32.25zM392.77 30.14C394.17 30.14 395.46 29.06 395.46 27.21 395.46 25.34 394.17 24.26 392.77 24.26 391.37 24.26 390.08 25.34 390.08 27.21 390.08 29.06 391.37 30.14 392.77 30.14zM392.77 28.94C392.01 28.94 391.58 28.26 391.58 27.21 391.58 26.15 392.01 25.46 392.77 25.46 393.53 25.46 393.96 26.15 393.96 27.21 393.96 28.26 393.53 28.94 392.77 28.94zM398.35 30.14C399.12 30.14 399.66 29.77 400.14 29.2L400.18 29.2 400.29 30 401.49 30 401.49 24.4 400.02 24.4 400.02 28.18C399.64 28.68 399.34 28.88 398.88 28.88 398.34 28.88 398.1 28.58 398.1 27.71L398.1 24.4 396.63 24.4 396.63 27.9C396.63 29.3 397.15 30.14 398.35 30.14zM403.06 30L404.52 30 404.52 26.66C404.84 25.85 405.37 25.56 405.81 25.56 406.04 25.56 406.2 25.59 406.39 25.65L406.65 24.38C406.48 24.31 406.3 24.26 405.99 24.26 405.41 24.26 404.81 24.66 404.4 25.39L404.36 25.39 404.26 24.4 403.06 24.4 403.06 30zM411.74 30.14C412.23 30.14 412.62 30.03 412.92 29.93L412.68 28.86C412.53 28.92 412.31 28.98 412.13 28.98 411.63 28.98 411.37 28.68 411.37 28.04L411.37 25.56 412.75 25.56 412.75 24.4 411.37 24.4 411.37 22.9 410.14 22.9 409.97 24.4 409.11 24.47 409.11 25.56 409.9 25.56 409.9 28.04C409.9 29.3 410.41 30.14 411.74 30.14zM413.89 30L415.35 30 415.35 26.15C415.77 25.74 416.06 25.52 416.52 25.52 417.07 25.52 417.31 25.83 417.31 26.69L417.31 30 418.78 30 418.78 26.51C418.78 25.1 418.26 24.26 417.05 24.26 416.29 24.26 415.74 24.66 415.29 25.08L415.35 24.03 415.35 22.02 413.89 22.02 413.89 30zM420.29 30L421.75 30 421.75 26.66C422.07 25.85 422.6 25.56 423.04 25.56 423.27 25.56 423.43 25.59 423.62 25.65L423.88 24.38C423.71 24.31 423.53 24.26 423.22 24.26 422.64 24.26 422.04 24.66 421.63 25.39L421.59 25.39 421.49 24.4 420.29 24.4 420.29 30zM426.99 30.14C428.39 30.14 429.68 29.06 429.68 27.21 429.68 25.34 428.39 24.26 426.99 24.26 425.59 24.26 424.3 25.34 424.3 27.21 424.3 29.06 425.59 30.14 426.99 30.14zM426.99 28.94C426.23 28.94 425.8 28.26 425.8 27.21 425.8 26.15 426.23 25.46 426.99 25.46 427.75 25.46 428.18 26.15 428.18 27.21 428.18 28.26 427.75 28.94 426.99 28.94zM432.29 30.14C432.93 30.14 433.49 29.82 433.98 29.4L434.01 29.4 434.12 30 435.32 30 435.32 26.73C435.32 25.11 434.59 24.26 433.17 24.26 432.29 24.26 431.49 24.59 430.83 25L431.36 25.97C431.88 25.67 432.38 25.44 432.9 25.44 433.59 25.44 433.83 25.86 433.85 26.41 431.6 26.65 430.63 27.28 430.63 28.48 430.63 29.43 431.29 30.14 432.29 30.14zM432.77 28.99C432.34 28.99 432.03 28.8 432.03 28.36 432.03 27.86 432.49 27.49 433.85 27.31L433.85 28.44C433.5 28.79 433.19 28.99 432.77 28.99zM438.87 30.14C439.36 30.14 439.75 30.03 440.05 29.93L439.81 28.86C439.66 28.92 439.44 28.98 439.26 28.98 438.76 28.98 438.5 28.68 438.5 28.04L438.5 25.56 439.88 25.56 439.88 24.4 438.5 24.4 438.5 22.9 437.27 22.9 437.1 24.4 436.24 24.47 436.24 25.56 437.03 25.56 437.03 28.04C437.03 29.3 437.54 30.14 438.87 30.14zM444.22 30L445.9 30 446.47 27.56C446.59 27.04 446.67 26.52 446.78 25.93L446.83 25.93C446.94 26.52 447.03 27.03 447.15 27.56L447.74 30 449.47 30 450.85 24.4 449.49 24.4 448.88 27.17C448.77 27.71 448.7 28.25 448.6 28.8L448.55 28.8C448.43 28.25 448.33 27.71 448.2 27.17L447.5 24.4 446.19 24.4 445.52 27.17C445.38 27.7 445.28 28.25 445.17 28.8L445.13 28.8C445.03 28.25 444.96 27.71 444.85 27.17L444.24 24.4 442.77 24.4 444.22 30zM451.92 30L453.38 30 453.38 24.4 451.92 24.4 451.92 30zM452.66 23.5C453.16 23.5 453.53 23.16 453.53 22.7 453.53 22.22 453.16 21.9 452.66 21.9 452.15 21.9 451.78 22.22 451.78 22.7 451.78 23.16 452.15 23.5 452.66 23.5zM457.01 30.14C457.5 30.14 457.89 30.03 458.19 29.93L457.95 28.86C457.8 28.92 457.58 28.98 457.4 28.98 456.9 28.98 456.64 28.68 456.64 28.04L456.64 25.56 458.02 25.56 458.02 24.4 456.64 24.4 456.64 22.9 455.41 22.9 455.24 24.4 454.38 24.47 454.38 25.56 455.17 25.56 455.17 28.04C455.17 29.3 455.68 30.14 457.01 30.14zM459.16 30L460.62 30 460.62 26.15C461.04 25.74 461.33 25.52 461.79 25.52 462.34 25.52 462.58 25.83 462.58 26.69L462.58 30 464.05 30 464.05 26.51C464.05 25.1 463.53 24.26 462.32 24.26 461.56 24.26 461.01 24.66 460.56 25.08L460.62 24.03 460.62 22.02 459.16 22.02 459.16 30zM469.21 30.14C469.85 30.14 470.41 29.82 470.9 29.4L470.93 29.4 471.04 30 472.24 30 472.24 26.73C472.24 25.11 471.51 24.26 470.09 24.26 469.21 24.26 468.41 24.59 467.75 25L468.28 25.97C468.8 25.67 469.3 25.44 469.82 25.44 470.51 25.44 470.75 25.86 470.77 26.41 468.52 26.65 467.55 27.28 467.55 28.48 467.55 29.43 468.21 30.14 469.21 30.14zM469.69 28.99C469.26 28.99 468.95 28.8 468.95 28.36 468.95 27.86 469.41 27.49 470.77 27.31L470.77 28.44C470.42 28.79 470.11 28.99 469.69 28.99zM477.61 30.14C479.07 30.14 479.84 29.35 479.84 28.37 479.84 27.33 479.02 26.96 478.28 26.68 477.69 26.46 477.14 26.31 477.14 25.9 477.14 25.58 477.38 25.36 477.88 25.36 478.3 25.36 478.69 25.56 479.09 25.84L479.75 24.95C479.28 24.6 478.66 24.26 477.84 24.26 476.58 24.26 475.76 24.97 475.76 25.98 475.76 26.91 476.58 27.34 477.29 27.61 477.88 27.84 478.46 28.03 478.46 28.45 478.46 28.8 478.21 29.04 477.65 29.04 477.13 29.04 476.65 28.82 476.15 28.43L475.48 29.35C476.03 29.81 476.86 30.14 477.61 30.14zM480.96 30L482.42 30 482.42 26.15C482.84 25.74 483.13 25.52 483.59 25.52 484.14 25.52 484.38 25.83 484.38 26.69L484.38 30 485.85 30 485.85 26.51C485.85 25.1 485.33 24.26 484.12 24.26 483.36 24.26 482.81 24.66 482.36 25.08L482.42 24.03 482.42 22.02 480.96 22.02 480.96 30zM489.7 30.14C491.1 30.14 492.39 29.06 492.39 27.21 492.39 25.34 491.1 24.26 489.7 24.26 488.3 24.26 487.01 25.34 487.01 27.21 487.01 29.06 488.3 30.14 489.7 30.14zM489.7 28.94C488.94 28.94 488.51 28.26 488.51 27.21 488.51 26.15 488.94 25.46 489.7 25.46 490.46 25.46 490.89 26.15 490.89 27.21 490.89 28.26 490.46 28.94 489.7 28.94zM493.62 30L495.08 30 495.08 26.66C495.4 25.85 495.93 25.56 496.37 25.56 496.6 25.56 496.76 25.59 496.95 25.65L497.21 24.38C497.04 24.31 496.86 24.26 496.55 24.26 495.97 24.26 495.37 24.66 494.96 25.39L494.92 25.39 494.82 24.4 493.62 24.4 493.62 30zM500.03 30.14C500.52 30.14 500.91 30.03 501.21 29.93L500.97 28.86C500.82 28.92 500.6 28.98 500.42 28.98 499.92 28.98 499.66 28.68 499.66 28.04L499.66 25.56 501.04 25.56 501.04 24.4 499.66 24.4 499.66 22.9 498.43 22.9 498.26 24.4 497.4 24.47 497.4 25.56 498.19 25.56 498.19 28.04C498.19 29.3 498.7 30.14 500.03 30.14zM502.23 32.13C503.43 31.73 504.12 30.84 504.12 29.67 504.12 28.76 503.74 28.22 503.06 28.22 502.54 28.22 502.11 28.56 502.11 29.09 502.11 29.65 502.55 29.96 503.03 29.96L503.12 29.96C503.12 30.54 502.69 31.04 501.92 31.33L502.23 32.13zM509.08 30.14C509.42 30.14 509.67 30.08 509.84 30.01L509.66 28.92C509.56 28.94 509.52 28.94 509.46 28.94 509.32 28.94 509.16 28.83 509.16 28.5L509.16 22.02 507.7 22.02 507.7 28.43C507.7 29.47 508.06 30.14 509.08 30.14zM513.19 30.14C514.59 30.14 515.88 29.06 515.88 27.21 515.88 25.34 514.59 24.26 513.19 24.26 511.79 24.26 510.5 25.34 510.5 27.21 510.5 29.06 511.79 30.14 513.19 30.14zM513.19 28.94C512.43 28.94 512 28.26 512 27.21 512 26.15 512.43 25.46 513.19 25.46 513.95 25.46 514.38 26.15 514.38 27.21 514.38 28.26 513.95 28.94 513.19 28.94zM518.77 30.14C519.54 30.14 520.08 29.77 520.56 29.2L520.6 29.2 520.71 30 521.91 30 521.91 24.4 520.44 24.4 520.44 28.18C520.06 28.68 519.76 28.88 519.3 28.88 518.76 28.88 518.52 28.58 518.52 27.71L518.52 24.4 517.05 24.4 517.05 27.9C517.05 29.3 517.57 30.14 518.77 30.14zM525.45 30.14C526.03 30.14 526.59 29.82 527 29.42L527.03 29.42 527.15 30 528.34 30 528.34 22.02 526.87 22.02 526.87 23.99 526.93 24.87C526.53 24.5 526.14 24.26 525.51 24.26 524.3 24.26 523.16 25.38 523.16 27.21 523.16 29.04 524.06 30.14 525.45 30.14zM525.83 28.93C525.09 28.93 524.67 28.35 524.67 27.19 524.67 26.07 525.2 25.47 525.83 25.47 526.18 25.47 526.53 25.58 526.87 25.89L526.87 28.35C526.55 28.77 526.22 28.93 525.83 28.93zM533.79 30.14C535.25 30.14 536.02 29.35 536.02 28.37 536.02 27.33 535.2 26.96 534.46 26.68 533.87 26.46 533.32 26.31 533.32 25.9 533.32 25.58 533.56 25.36 534.06 25.36 534.48 25.36 534.87 25.56 535.27 25.84L535.93 24.95C535.46 24.6 534.84 24.26 534.02 24.26 532.76 24.26 531.94 24.97 531.94 25.98 531.94 26.91 532.76 27.34 533.47 27.61 534.06 27.84 534.64 28.03 534.64 28.45 534.64 28.8 534.39 29.04 533.83 29.04 533.31 29.04 532.83 28.82 532.33 28.43L531.66 29.35C532.21 29.81 533.04 30.14 533.79 30.14zM539.48 30.14C540.88 30.14 542.17 29.06 542.17 27.21 542.17 25.34 540.88 24.26 539.48 24.26 538.08 24.26 536.79 25.34 536.79 27.21 536.79 29.06 538.08 30.14 539.48 30.14zM539.48 28.94C538.72 28.94 538.29 28.26 538.29 27.21 538.29 26.15 538.72 25.46 539.48 25.46 540.24 25.46 540.67 26.15 540.67 27.21 540.67 28.26 540.24 28.94 539.48 28.94zM545.06 30.14C545.83 30.14 546.37 29.77 546.85 29.2L546.89 29.2 547 30 548.2 30 548.2 24.4 546.73 24.4 546.73 28.18C546.35 28.68 546.05 28.88 545.59 28.88 545.05 28.88 544.81 28.58 544.81 27.71L544.81 24.4 543.34 24.4 543.34 27.9C543.34 29.3 543.86 30.14 545.06 30.14zM549.77 30L551.23 30 551.23 26.15C551.65 25.74 551.94 25.52 552.4 25.52 552.95 25.52 553.19 25.83 553.19 26.69L553.19 30 554.66 30 554.66 26.51C554.66 25.1 554.14 24.26 552.93 24.26 552.17 24.26 551.6 24.66 551.11 25.14L551.07 25.14 550.97 24.4 549.77 24.4 549.77 30zM558.15 30.14C558.73 30.14 559.29 29.82 559.7 29.42L559.73 29.42 559.85 30 561.04 30 561.04 22.02 559.57 22.02 559.57 23.99 559.63 24.87C559.23 24.5 558.84 24.26 558.21 24.26 557 24.26 555.86 25.38 555.86 27.21 555.86 29.04 556.76 30.14 558.15 30.14zM558.53 28.93C557.79 28.93 557.37 28.35 557.37 27.19 557.37 26.07 557.9 25.47 558.53 25.47 558.88 25.47 559.23 25.58 559.57 25.89L559.57 28.35C559.25 28.77 558.92 28.93 558.53 28.93zM168.43 13L173.39 13 173.39 11.76 171.78 11.76C171.44 11.76 170.95 11.8 170.58 11.84 171.93 10.52 173.04 9.08 173.04 7.74 173.04 6.36 172.11 5.46 170.71 5.46 169.7 5.46 169.04 5.86 168.36 6.58L169.16 7.38C169.53 6.97 169.98 6.62 170.52 6.62 171.22 6.62 171.63 7.07 171.63 7.82 171.63 8.96 170.44 10.35 168.43 12.15L168.43 13zM176.84 13.14C178.34 13.14 179.34 11.82 179.34 9.27 179.34 6.72 178.34 5.46 176.84 5.46 175.33 5.46 174.33 6.71 174.33 9.27 174.33 11.82 175.33 13.14 176.84 13.14zM176.84 11.99C176.2 11.99 175.72 11.35 175.72 9.27 175.72 7.2 176.2 6.6 176.84 6.6 177.47 6.6 177.95 7.2 177.95 9.27 177.95 11.35 177.47 11.99 176.84 11.99zM180.6 13L185.05 13 185.05 11.81 183.66 11.81 183.66 5.6 182.57 5.6C182.1 5.89 181.59 6.08 180.85 6.22L180.85 7.13 182.19 7.13 182.19 11.81 180.6 11.81 180.6 13zM187.53 13L189.02 13C189.14 10.1 189.37 8.59 191.09 6.49L191.09 5.6 186.17 5.6 186.17 6.83 189.5 6.83C188.09 8.79 187.66 10.43 187.53 13zM198.37 11.42L199.69 11.42 199.69 4.65 198.37 4.65 198.37 5.67 196.14 5.67 196.14 6.71 198.37 6.71 198.37 7.39 196.14 7.39 196.14 8.43 198.37 8.43 198.37 11.42zM197.06 8.87C195.93 9.07 194.91 9.14 193.8 9.16L193.8 5.23 192.49 5.23 192.49 10.24 193.23 10.24C194.61 10.24 195.83 10.19 197.19 9.94L197.06 8.87zM194.94 12.65L194.94 10.82 193.62 10.82 193.62 13.7 199.9 13.7 199.9 12.65 194.94 12.65zM209.02 8.45C207.87 8.62 206.86 8.66 205.27 8.67L205.27 7.94 208.12 7.94 208.12 6.92 205.27 6.92 205.27 6.22 208.39 6.22 208.39 5.18 203.96 5.18 203.96 9.71 204.75 9.71C206.69 9.71 207.84 9.68 209.14 9.47L209.02 8.45zM206.28 11.53L209.82 11.53 209.82 12.72 206.28 12.72 206.28 11.53zM204.98 13.76L211.11 13.76 211.11 10.5 204.98 10.5 204.98 13.76zM209.78 4.66L209.78 10.12 211.11 10.12 211.11 4.66 209.78 4.66zM217 10.75C216.5 10.75 216.2 10.06 216.2 8.64 216.2 7.23 216.5 6.54 217 6.54 217.51 6.54 217.8 7.23 217.8 8.64 217.8 10.06 217.51 10.75 217 10.75zM219.71 8.04L218.98 8.04C218.83 6.32 218.09 5.3 217 5.3 215.78 5.3 215.01 6.56 215.01 8.64 215.01 10.73 215.78 11.99 217 11.99 218.12 11.99 218.87 10.91 218.99 9.11L219.71 9.11 219.71 13.45 220.94 13.45 220.94 4.8 219.71 4.8 219.71 8.04zM221.58 4.64L221.58 13.85 222.83 13.85 222.83 4.64 221.58 4.64zM224.99 9.35C226.06 9.13 226.79 8.62 227.2 7.95 227.61 8.55 228.3 9.01 229.33 9.21L229.84 8.19C228.5 7.95 227.87 7.31 227.83 6.58L229.63 6.58 229.63 5.56 227.83 5.56 227.83 4.66 226.51 4.66 226.51 5.56 224.71 5.56 224.71 6.58 226.51 6.58C226.47 7.36 225.84 8.07 224.46 8.33L224.99 9.35zM230 9.47C228.07 9.73 225.84 9.74 224.16 9.74L224.32 10.81C224.98 10.81 225.72 10.81 226.5 10.78L226.5 13.58 227.82 13.58 227.82 10.7C228.57 10.64 229.34 10.56 230.08 10.42L230 9.47zM230.52 4.65L230.52 13.86 231.84 13.86 231.84 4.65 230.52 4.65zM233.75 5.59L233.75 6.66 236.76 6.66C236.52 8.7 235.38 10.16 233.24 11.26L233.98 12.27C237.04 10.72 238.09 8.35 238.09 5.59L233.75 5.59zM241.83 8.16L240.54 8.16 240.54 4.64 239.22 4.64 239.22 13.84 240.54 13.84 240.54 9.25 241.83 9.25 241.83 8.16zM248.16 8.81L246.36 8.81 246.36 6.45 248.16 6.45 248.16 8.81zM249.46 5.41L245.07 5.41 245.07 9.85 249.46 9.85 249.46 5.41zM247.43 10.71L246.11 10.71 246.11 13.7 252.38 13.7 252.38 12.65 247.43 12.65 247.43 10.71zM252.05 7.31L252.05 4.65 250.73 4.65 250.73 11.37 252.05 11.37 252.05 8.39 253.27 8.39 253.27 7.31 252.05 7.31zM261.39 6.79L256.38 6.79 256.38 5.87 261.32 5.87 261.32 4.82 255.06 4.82 255.06 7.82 261.39 7.82 261.39 6.79zM256.09 12.27L257.86 12.27 257.86 9.94 254.85 9.94 254.85 10.88 256.63 10.88 256.63 11.39 254.86 11.39 254.86 13.8 255.4 13.8C256.8 13.8 257.39 13.79 258.11 13.65L258.02 12.71C257.46 12.81 256.98 12.83 256.09 12.84L256.09 12.27zM259.45 10.87L260.28 10.87 260.28 12.86 259.45 12.86 259.45 10.87zM258.34 13.8L261.39 13.8 261.39 9.94 258.34 9.94 258.34 13.8zM254.01 8.35L254.01 9.4 262.33 9.4 262.33 8.35 254.01 8.35zM264.39 13.14C264.92 13.14 265.31 12.72 265.31 12.18 265.31 11.64 264.92 11.22 264.39 11.22 263.87 11.22 263.48 11.64 263.48 12.18 263.48 12.72 263.87 13.14 264.39 13.14z"/>
  </g>
</svg>
