<svg xmlns="http://www.w3.org/2000/svg" xmlns:xlink="http://www.w3.org/1999/xlink" width="151" height="33" viewBox="0 0 151 33">
    <defs>
        <path id="a" d="M8 24.473c1.214.865 2 2.24 2 3.79C10 30.88 7.761 33 5 33s-5-2.12-5-4.737c0-1.55.786-2.925 2-3.79V2.843A2.842 2.842 0 0 1 4.842 0h.316A2.845 2.845 0 0 1 8 2.842v21.631z"/>
        <mask id="b" width="10" height="33" x="0" y="0" fill="#fff">
            <use xlink:href="#a"/>
        </mask>
    </defs>
    <g fill="none" fill-rule="evenodd">
        <path fill="#404040" d="M15.178 32.588c4.326 0 7.98-1.68 10.08-3.738V14.822H14.212v5.082h5.502v6.132c-.882.756-2.394 1.176-3.906 1.176-6.09 0-9.198-4.074-9.198-10.836 0-6.678 3.612-10.71 8.778-10.71 2.814 0 4.578 1.134 6.09 2.604l3.318-3.948C22.78 2.264 19.672.332 15.178.332 6.904.332.268 6.338.268 16.586c0 10.374 6.426 16.002 14.91 16.002zm22.05 0c2.688 0 5.04-1.344 7.098-3.108h.126l.462 2.52h5.04V18.266c0-6.804-3.066-10.374-9.03-10.374-3.696 0-7.056 1.386-9.828 3.108l2.226 4.074c2.184-1.26 4.284-2.226 6.468-2.226 2.898 0 3.906 1.764 3.99 4.074-9.45 1.008-13.524 3.654-13.524 8.694 0 3.99 2.772 6.972 6.972 6.972zm2.016-4.83c-1.806 0-3.108-.798-3.108-2.646 0-2.1 1.932-3.654 7.644-4.41v4.746c-1.47 1.47-2.772 2.31-4.536 2.31zM56.254 32h6.132V15.83c1.68-1.764 3.192-2.646 4.536-2.646 2.226 0 3.276 1.302 3.276 4.914V32h6.174V15.83c1.68-1.764 3.192-2.646 4.536-2.646 2.226 0 3.276 1.302 3.276 4.914V32h6.174V17.342c0-5.922-2.31-9.45-7.308-9.45-3.066 0-5.334 1.848-7.476 4.116-1.134-2.604-3.108-4.116-6.468-4.116-3.066 0-5.25 1.68-7.224 3.738h-.168l-.42-3.15h-5.04V32zm39.228-9.828h11.466v-4.41H95.482v4.41zm30.66 10.416c4.326 0 7.98-1.68 10.08-3.738V14.822h-11.046v5.082h5.502v6.132c-.882.756-2.394 1.176-3.906 1.176-6.09 0-9.198-4.074-9.198-10.836 0-6.678 3.612-10.71 8.778-10.71 2.814 0 4.578 1.134 6.09 2.604l3.318-3.948c-2.016-2.058-5.124-3.99-9.618-3.99-8.274 0-14.91 6.006-14.91 16.254 0 10.374 6.426 16.002 14.91 16.002z"/>
        <g transform="translate(141)">
            <use stroke="#E75252" stroke-width="2.526" mask="url(#b)" xlink:href="#a"/>
            <path fill="#E75252" d="M6.167 25.644C7.244 26.075 8 27.086 8 28.264c0 1.569-1.343 2.841-3 2.841s-3-1.272-3-2.842c0-1.177.756-2.188 1.833-2.619V14.211h2.334v11.433zM8 10.737H5.168c-.37 0-.668.283-.668.631 0 .349.299.632.668.632H8v-1.263zm0-3.158H5.168c-.37 0-.668.283-.668.632 0 .348.299.631.668.631H8V7.58zM8 4.42H5.168c-.37 0-.668.283-.668.632 0 .348.299.631.668.631H8V4.421z"/>
        </g>
    </g>
</svg>
