<?xml version="1.0" encoding="UTF-8"?>
<svg width="28px" height="26px" viewBox="0 0 28 26" version="1.1" xmlns="http://www.w3.org/2000/svg" xmlns:xlink="http://www.w3.org/1999/xlink">
    <!-- Generator: sketchtool 41.2 (35397) - http://www.bohemiancoding.com/sketch -->
    <title>ABC79DC3-4F33-406B-A29B-5352D29C83B3</title>
    <desc>Created with sketchtool.</desc>
    <defs></defs>
    <g id="Web" stroke="none" stroke-width="1" fill="none" fill-rule="evenodd">
        <g id="VideoPage-attendee" transform="translate(-1166.000000, -675.000000)" fill="#9E9E9E">
            <g id="Group-5" transform="translate(1147.000000, 214.000000)">
                <path d="M19.9879518,482.359026 L23.1686747,482.359026 L23.1686747,485.918864 C23.1686747,486.340771 23.3855422,486.709939 23.7228916,486.894523 C23.8674699,486.973631 24.0120482,487 24.1566265,487 C24.373494,487 24.5903614,486.920892 24.7590361,486.789047 L30.060241,482.385396 L46.0120482,482.385396 C46.5662651,482.385396 47,481.910751 47,481.30426 L47,462.081136 C47,461.474645 46.5662651,461 46.0120482,461 L19.9879518,461 C19.4337349,461 19,461.474645 19,462.081136 L19,481.27789 C19,481.884381 19.4578313,482.359026 19.9879518,482.359026 Z M40.3291263,469.811209 C40.9024541,469.811209 41.3511454,469.354143 41.3511454,468.770115 C41.3511454,468.186087 40.9024541,467.729021 40.3291263,467.729021 L25.6220221,467.729021 C25.0486943,467.729021 24.6000029,468.186087 24.6000029,468.770115 C24.6000029,469.354143 25.0486943,469.811209 25.6220221,469.811209 L40.3291263,469.811209 Z M40.3291263,475.311829 C40.9024541,475.311829 41.3511454,474.854763 41.3511454,474.270735 C41.3511454,473.686707 40.9024541,473.229641 40.3291263,473.229641 L25.6220221,473.229641 C25.0486943,473.229641 24.6000029,473.686707 24.6000029,474.270735 C24.6000029,474.854763 25.0486943,475.311829 25.6220221,475.311829 L40.3291263,475.311829 Z M21.1241497,463.11853 L44.8758742,463.11853 L44.8758742,480.265444 L29.7719692,480.265444 C29.5575604,480.265444 29.3431517,480.345073 29.1763893,480.47779 L25.2455623,483.822234 L25.2455623,481.353715 C25.2455623,480.743222 24.8167448,480.265444 24.2688113,480.265444 L21.1241497,480.265444 L21.1241497,463.11853 L21.1241497,463.11853 Z" id="speech-bubble"></path>
            </g>
        </g>
    </g>
</svg>